# xmcd CD database file
#
# Track frame offsets:
#	150
#	17795
#	31151
#	46216
#	66349
#	84053
#	102433
#	118814
#	135850
#	149626
#	167277
#	184697
#
# Disc length: 2700 seconds
#
# Revision: 3
# Processed by: cddbd v1.5.1PL0 Copyright (c) Steve Scherf et al.
# Submitted via: CDex 1.51
#
DISCID=960a8a0c
DTITLE=Zezé Di Camargo and Luciano 1992 - Coração está em pedaços
DYEAR=1992
DGENRE=Sertanejo
TTITLE0=Coração Está Em Pedaços
TTITLE1=Muda De Vida
TTITLE2=Cara Ou Coroa
TTITLE3=Voando Sem Asas
TTITLE4=Leva Minha Timidez
TTITLE5=Garoto De Rua
TTITLE6=Coração Na Contra Mão
TTITLE7=Me Leva Pra Casa
TTITLE8=Não Tem Jeito Não
TTITLE9=Por Deus
TTITLE10=Linda, Linda
TTITLE11=Cama De Capim
EXTD=YEAR: 1992
EXTT0=
EXTT1=
EXTT2=
EXTT3=
EXTT4=
EXTT5=
EXTT6=
EXTT7=
EXTT8=
EXTT9=
EXTT10=
EXTT11=
PLAYORDER=
